<?xml version="1.0" encoding="utf-8"?>
<!-- Generator: Adobe Illustrator 15.0.2, SVG Export Plug-In . SVG Version: 6.00 Build 0)  -->
<!DOCTYPE svg PUBLIC "-//W3C//DTD SVG 1.1//EN" "http://www.w3.org/Graphics/SVG/1.1/DTD/svg11.dtd">
<svg version="1.1" id="Ebene_1" xmlns="http://www.w3.org/2000/svg" xmlns:xlink="http://www.w3.org/1999/xlink" x="0px" y="0px"
	 width="400px" height="400px" viewBox="0 0 400 400" enable-background="new 0 0 400 400" xml:space="preserve">
<path fill="#3D3E3D" d="M138.673,189.229l-9.392-9.388c-25.783-25.787-67.704-25.787-93.488,0
	c-25.787,25.784-25.787,67.706,0,93.492c25.785,25.782,67.706,25.782,93.488,0l27.904-28.169l27.904,28.169
	c25.783,25.782,67.705,25.782,93.489,0c25.788-25.786,25.788-67.708,0-93.492c-25.784-25.787-67.706-25.787-93.489,0l-74.585,74.844
	c-15.47,15.474-40.596,15.474-56.068,0c-15.471-15.47-15.471-40.597,0-56.067c15.472-15.472,40.598-15.472,56.068,0l9.392,9.388
	L138.673,189.229z M260.067,254.685c-15.473,15.474-40.596,15.474-56.069,0l-28.036-28.033l28.036-28.034
	c15.474-15.472,40.597-15.472,56.069,0C275.536,214.088,275.536,239.215,260.067,254.685z"/>
<g>
	<g>
		<g>
			<g>
				<path fill="#E31F51" d="M346.574,107.384l33.852-12.845l7.886,22.474l-34.442,11.383l21.599,28.597l-19.263,14.301l-21.6-30.059
					l-20.424,30.059l-19.552-14.301l21.597-28.597l-33.857-11.383l7.881-22.475l32.973,12.841v-36.48h23.352V107.384z"/>
			</g>
		</g>
	</g>
</g>
</svg>
